<svg width="220" height="220" viewBox="0 0 220 220" fill="none" xmlns="http://www.w3.org/2000/svg">
<path d="M0 16.9231C0 7.57672 7.57672 0 16.9231 0H203.077C212.423 0 220 7.57672 220 16.9231V110C220 170.751 170.751 220 110 220C49.2487 220 0 170.751 0 110V16.9231Z" fill="#F3F3F3"/>
<mask id="mask0_1151_2182" style="mask-type:alpha" maskUnits="userSpaceOnUse" x="0" y="0" width="220" height="220">
<path d="M0 16.9231C0 7.57672 7.57672 0 16.9231 0H203.077C212.423 0 220 7.57672 220 16.9231V110C220 170.751 170.751 220 110 220C49.2487 220 0 170.751 0 110V16.9231Z" fill="#F3F3F3"/>
</mask>
<g mask="url(#mask0_1151_2182)">
<path d="M62.2286 130.813L110.468 142.702L115.392 132.763L121.662 120.035L132.579 97.9844L101.997 84.3586C100.728 87.0393 62.2286 130.813 62.2286 130.813Z" fill="#FFA79B"/>
<path d="M123.503 120.038L133.49 98.6802L117.309 91.4961C116.465 100.968 118.569 111.833 123.503 120.038Z" fill="black"/>
<path d="M92.8671 60.0393C96.2771 45.5946 131.086 36.7123 136.813 50.0823C141.193 60.0465 153.008 87.7776 150.256 94.9971C144.676 109.546 126.418 109.58 115.616 101.544C104.706 93.432 89.5172 74.2811 92.8671 60.0393Z" fill="#FFA79B"/>
<path d="M113.99 56.0828C124.294 54.8601 134.121 48.7001 136.286 47.2819C142.831 37.8088 134.507 28.8363 118.859 39.2287C105.702 41.7997 90.3309 48.2603 89.8763 60.5583C85.0313 75.8928 94.7955 75.9953 100.35 84.0284C103.354 81.8959 102.283 76.8725 105.943 74.626C111.331 71.2267 113.209 68.7217 113.99 56.0828Z" fill="#952C28"/>
<path d="M136.952 77.1314C138.075 76.9355 139.307 76.8154 140.349 76.1594C141.468 75.395 142.333 73.7265 141.002 72.7259C140.454 72.3473 141.073 71.4805 141.622 71.8591C142.843 72.784 143.149 74.5327 142.22 75.833C141.167 77.534 139.016 77.9094 137.145 78.2358C136.474 78.258 136.281 77.1536 136.952 77.1314Z" fill="#D24A43"/>
<path d="M124.837 65.6845C125.361 66.5549 125.87 67.3315 126.394 68.2018C126.919 69.0722 125.521 69.7161 124.997 68.8457C124.472 67.9754 123.964 67.1988 123.439 66.3284C123.022 65.535 124.328 64.9079 124.837 65.6845Z" fill="black"/>
<path d="M139.982 59.6182C140.507 60.4886 141.015 61.2652 141.54 62.1356C142.064 63.006 140.666 63.65 140.142 62.7796C139.617 61.9092 139.109 61.1325 138.584 60.2622C138.076 59.4855 139.458 58.7478 139.982 59.6182Z" fill="black"/>
<path d="M120.24 61.3259C121.12 60.802 122.094 60.2623 122.99 59.8296C124.137 59.1668 125.133 60.9688 123.892 61.6475C123.012 62.1713 122.037 62.7111 121.141 63.1438C119.994 63.8066 118.998 62.0046 120.24 61.3259Z" fill="#952C28"/>
<path d="M135.19 55.2854C136.07 54.7615 137.044 54.2217 137.94 53.789C139.087 53.1263 140.083 54.9283 138.842 55.607C137.962 56.1308 136.988 56.6705 136.092 57.1033C134.944 57.766 133.948 55.964 135.19 55.2854Z" fill="#952C28"/>
<path d="M127.781 87.6995C129.246 89.4278 131.352 90.3867 133.657 90.2746C134.331 90.2534 134.508 91.2599 133.833 91.2812C131.152 91.4577 128.638 90.3802 126.936 88.4096C126.542 87.8174 127.402 87.1988 127.781 87.6995Z" fill="#D24A43"/>
<path d="M91.624 82.2436C91.8667 77.0256 98.2872 72.2311 104.851 74.8852C106.631 80.219 108.612 85.6125 110.562 90.8201C108.184 93.0678 102.408 94.9676 98.2133 93.3255C93.5079 91.4876 91.353 87.85 91.624 82.2436Z" fill="#FFA79B"/>
<path d="M99.302 81.7893C101.022 82.8175 102.852 83.9216 104.572 84.9499C105.119 85.3288 104.578 86.0883 103.953 85.8179C103.844 85.7421 103.734 85.6663 103.625 85.5905L103.515 85.5147C101.904 84.5623 100.294 83.6098 98.6832 82.6573C98.0422 82.2948 98.677 81.5189 99.302 81.7893Z" fill="#D24A43"/>
<path d="M118.547 273.249C124.24 232.287 136.314 113.637 84.535 114.052C52.4364 114.312 20.5762 155.531 -2.06419 228.848C-9.04597 251.402 -15.3866 277.092 -18.9311 301.806C27.2203 293.79 74.0938 287.175 118.547 273.249Z" fill="#DBDBDB"/>
<path d="M65.3375 289.216C65.4173 268.903 66.1402 248.566 66.8632 228.229C67.8533 200.523 74.226 186.445 75.3954 158.705C54.12 179.388 33.8632 195.585 32.8762 226.121C32.0231 251.849 42.057 274.655 59.5257 290.405C61.5136 290.13 63.3807 289.681 65.3375 289.216Z" fill="black"/>
<path d="M222.517 311.252C228.032 298.221 234.965 285.799 241.181 273.025C220.549 263.193 198.631 256.891 178.343 246.317C177.52 245.888 175.671 244.391 175.671 244.391C175.671 244.391 128.279 158.067 115.181 142.189C115.181 142.189 128.6 274.613 129.766 278.755C131.007 282.786 215.756 309.6 215.756 309.6L222.517 311.252Z" fill="#DBDBDB"/>
<path d="M211.557 292.311C175.991 279.418 140.025 270.27 140.025 270.27C140.025 270.27 136.57 258.826 127.125 201.615C117.588 144.421 119.148 128.094 87.0458 119.493C87.0458 119.493 78.0589 121.53 64.0979 142.549C50.137 163.569 48.995 248.331 52.4137 292.83C54.8699 324.461 136.3 345.94 187.188 342.492C194.301 326.111 205.437 308.992 211.557 292.311Z" fill="#DBDBDB"/>
<path d="M123.561 156.945C126.141 188.393 128.722 219.841 131.303 251.289C131.355 251.675 131.331 252.172 131.383 252.559C130.99 252.326 130.699 252.176 130.306 251.943C130.255 251.557 130.19 251.074 130.227 250.673C127.672 219.418 125.13 188.26 122.588 157.102C122.497 156.426 123.559 156.255 123.561 156.945Z" fill="black"/>
</g>
</svg>
