<svg width="220" height="220" viewBox="0 0 220 220" fill="none" xmlns="http://www.w3.org/2000/svg">
<path d="M0 110C0 49.2487 49.2487 0 110 0V0C170.751 0 220 49.2487 220 110V208C220 214.627 214.627 220 208 220H12C5.37258 220 0 214.627 0 208V110Z" fill="#F3F3F3"/>
<mask id="mask0_1151_2183" style="mask-type:alpha" maskUnits="userSpaceOnUse" x="0" y="0" width="220" height="220">
<path d="M0 110C0 49.2487 49.2487 0 110 0V0C170.751 0 220 49.2487 220 110V208C220 214.627 214.627 220 208 220H12C5.37258 220 0 214.627 0 208V110Z" fill="#F3F3F3"/>
</mask>
<g mask="url(#mask0_1151_2183)">
<path d="M95.0648 72.4177C95.0648 72.4177 41.6942 103.887 60.5999 112.387C82.076 122.046 118.737 108.683 118.737 108.683L95.0648 72.4177Z" fill="#D6261D"/>
<path d="M125.253 266.27C125.253 266.27 274.188 335.15 299.05 339.841C323.92 344.564 339.159 350.972 346.329 338.655C354.32 337.668 354.904 335.166 357.64 328.676C364.495 327.618 361.904 316.753 350.237 314.61C338.602 312.458 302.188 298.312 302.188 298.312C302.188 298.312 338.353 293.63 338.656 286.772C338.999 279.937 290.311 276.727 290.311 276.727L148.638 208.057L125.253 266.27Z" fill="#F8934F"/>
<path d="M172.046 216.107C170.442 216.954 168.742 218.066 166.96 219.507C150.092 233.218 151.466 259.335 157.401 278.477C167.386 283.149 178.99 288.571 191.241 294.192C191.155 292.579 191.18 291.004 191.437 289.433C192.072 285.475 194.853 282.261 195.411 278.392C196.669 269.661 189.051 259.399 187.314 250.873C185.384 241.342 190.236 234.084 190.57 225.367L172.046 216.107Z" fill="#F77C2D"/>
<path d="M188.731 216.079L187.672 219.47L167.566 283.974L160.143 318.205L158.011 352.332L-35.5261 402.691C-35.5261 402.691 -29.9144 220.904 68.6405 162.524C69.8366 162.816 71.0411 163.139 72.2456 163.462C90.081 168.203 109.17 175.734 126.626 183.622L126.707 183.668C160.869 199.171 188.731 216.079 188.731 216.079Z" fill="#DBDBDB"/>
<path d="M78.2744 164.531C78.2744 164.531 108.498 197.518 120 194.77C131.502 192.022 130.589 182.386 130.589 182.386L78.2744 164.531Z" fill="#DBDBDB"/>
<path d="M192.676 217.568L191.628 220.978C187.236 218.906 179.664 215.014 175.411 214.858C168.312 214.647 165.684 215.915 160.431 210.096C157.467 206.804 154.766 202.6 150.605 200.635C145.33 198.156 140.117 195.661 135.383 191.288C132.203 188.322 131.437 187.851 130.859 185.04L130.938 185.086C164.953 200.613 192.676 217.568 192.676 217.568Z" fill="#DBDBDB"/>
<path d="M70.0207 160.701C68.2829 166.556 63.4045 172.678 59.7137 175.941C49.5701 184.936 38.6541 191.632 31.0946 203.456C22.7018 216.691 23.2449 234.775 16.9949 249.162C14.1846 255.644 9.87693 261.14 7.14568 267.668C2.21441 279.566 2.3916 292.7 2.65633 305.403C3.06784 325.658 9.25506 341.547 -0.183957 360.214C-5.96903 371.663 -5.82698 383.011 -5.34548 394.504L-35.8049 402.691C-35.8049 402.691 -30.6613 218.937 66.4533 159.728C67.6424 160.052 68.8315 160.376 70.0207 160.701Z" fill="#DBDBDB"/>
<path d="M136.569 196.007C136.569 196.007 153.747 214.537 155.743 266.585" stroke="#1A1B16" stroke-width="1.89034" stroke-miterlimit="10" stroke-linecap="round" stroke-linejoin="round"/>
<path d="M78.9738 83.2047C78.9738 83.2047 76.7609 107.964 90.8003 125.657C94.8895 130.795 103.599 113.086 103.599 113.086L107.917 78.2066L78.9738 83.2047Z" fill="#1A1B16"/>
<path d="M155.834 86.026C155.78 89.0095 155.667 92.684 155.546 95.4154C155.55 95.6843 155.522 95.9616 155.494 96.239L155.488 96.3419C153.135 148.389 137.886 153.823 137.886 153.823C137.886 153.823 137.35 156.125 136.545 159.58C134.706 167.529 131.586 181.589 130.757 187.884C122.226 191.755 102.61 179.734 88.7945 169.938C88.2532 169.543 87.7202 169.18 87.1789 168.785C79.3786 163.182 74.8076 160.897 74.8076 160.897L83.322 117.422L83.5061 116.462L83.5949 116.033C81.3122 114.519 77.3549 110.99 76.5323 107.87C74.9453 101.851 77.8354 95.848 82.3775 94.8341C85.7489 94.0999 93.3567 96.5498 93.7664 104.099C94.318 113.971 100.607 111.039 100.855 98.4555C100.928 95.1632 101.137 86.1329 101.23 84.826C103.001 85.2961 152.641 87.6909 155.834 86.026Z" fill="#FFA79B"/>
<path d="M83.8731 99.282C83.8731 99.282 81.4106 102.119 83.1255 105.394C84.8404 108.669 88.7259 106.98 88.7259 106.98C88.6145 105.038 87.7033 103.194 86.4595 101.722C85.2158 100.249 83.6618 99.1058 82.0938 98.035" stroke="#952C28" stroke-width="1.89034" stroke-miterlimit="10" stroke-linecap="round" stroke-linejoin="round"/>
<path d="M81.5742 113.457C81.5742 113.457 84.114 115.833 87.96 115.575Z" fill="black"/>
<path d="M81.5742 113.457C81.5742 113.457 84.114 115.833 87.96 115.575" stroke="#952C28" stroke-width="1.89034" stroke-miterlimit="10" stroke-linecap="round" stroke-linejoin="round"/>
<path d="M102.57 149.704C102.57 149.704 122.509 161.651 137.381 154.456C136.204 159.733 134.892 165.013 134.892 165.013C134.892 165.013 113.943 166.876 102.57 149.704Z" fill="black"/>
<path d="M122.151 109.837C122.128 111.23 121.638 112.25 120.604 112.244C119.57 112.237 118.759 111.085 118.782 109.692C118.805 108.299 119.658 107.14 120.692 107.147C121.726 107.153 122.175 108.444 122.151 109.837Z" fill="#1A1B16"/>
<path d="M146.703 110.708C146.694 112.028 146.226 113.008 145.222 112.992C144.218 112.977 143.463 111.91 143.472 110.589C143.482 109.269 144.321 108.182 145.293 108.207C146.266 108.231 146.743 109.378 146.703 110.708Z" fill="#1A1B16"/>
<path d="M113.681 101.542C113.681 101.542 119.64 99.298 125.345 100.714" stroke="#1A1B16" stroke-width="1.89034" stroke-miterlimit="10" stroke-linecap="round" stroke-linejoin="round"/>
<path d="M142.011 101.824C142.011 101.824 146.745 100.747 151.557 101.934" stroke="#1A1B16" stroke-width="1.89034" stroke-miterlimit="10" stroke-linecap="round" stroke-linejoin="round"/>
<path d="M121.991 128.179C126.11 131.333 131.051 132.502 136.224 131.282Z" fill="black"/>
<path d="M121.991 128.179C126.11 131.333 131.051 132.502 136.224 131.282" stroke="#952C28" stroke-width="1.89034" stroke-miterlimit="10" stroke-linecap="round" stroke-linejoin="round"/>
<path d="M133.94 103.807L138.044 119.095C138.331 120.113 138.029 121.234 137.314 121.994L133.834 123.976" stroke="#952C28" stroke-width="1.89034" stroke-miterlimit="10" stroke-linecap="round" stroke-linejoin="round"/>
<path d="M126.598 43.3029C126.598 43.3029 125.89 37.3919 128.167 37.0371C130.444 36.6823 130.6 43.8813 130.6 43.8813L126.598 43.3029Z" fill="#BF3028"/>
<path d="M158.675 86.194C133.082 89.8832 97.8734 86.9216 84.3604 85.518C80.8119 85.1624 78.7776 84.9038 78.7776 84.9038C78.7776 84.9038 74.445 41.2475 125.475 42.6595C130.518 42.8166 134.799 43.7114 138.437 45.1784C161.536 54.5098 158.675 86.194 158.675 86.194Z" fill="#F52A21"/>
<path d="M120.014 82.0566C128.744 83.167 141.614 83.5079 150.301 82.1052C150.301 82.1052 152.007 65.6072 136.823 65.559C119.039 65.4694 120.014 82.0566 120.014 82.0566Z" fill="#1A1B16"/>
</g>
</svg>
