<svg width="220" height="220" viewBox="0 0 220 220" fill="none" xmlns="http://www.w3.org/2000/svg">
<rect width="220" height="220" rx="12" fill="#F3F3F3"/>
<mask id="mask0_1151_2184" style="mask-type:alpha" maskUnits="userSpaceOnUse" x="0" y="0" width="220" height="220">
<rect width="220" height="220" rx="12" fill="#F3F3F3"/>
</mask>
<g mask="url(#mask0_1151_2184)">
<path d="M321.617 164.645L271.008 260.048C263.024 275.096 243.594 279.996 229.242 270.58L181.283 239.1L162.216 319.258L84.239 309.043L79.2596 311.204C73.5898 313.167 67.477 313.536 61.6029 312.269C55.7287 311.003 50.3241 308.151 45.9917 304.032L-12.9446 296.311L5.64797 228.517L0.770383 215.982L-4.72067 201.865C-10.5267 181.391 5.97208 156.692 27.4673 155.627L62.3981 153.899L83.4954 152.853L153.154 151.609C170.305 151.305 186.919 157.564 199.516 169.075L239.266 205.4L264.743 138.739C265.473 140.038 267.014 141.31 269.615 142.351C271.498 143.097 273.316 143.993 275.051 145.032C284.318 150.629 285.666 157.717 291.027 160.352C300.063 164.793 304.93 161.395 310.201 163.236C310.666 163.398 311.118 163.594 311.554 163.824C316.685 166.508 319.65 167.527 321.617 164.645Z" fill="#DBDBDB"/>
<path d="M82.2456 154.17C82.2456 154.17 68.3998 165.619 78.5488 172C88.6979 178.381 107.498 170.007 114.392 162.143C114.392 162.143 131.826 174.473 142.426 168.236C150.915 163.239 133.326 156.124 133.326 156.124" stroke="#0F0F0F" stroke-width="0.99749" stroke-linecap="round" stroke-linejoin="round"/>
<path d="M107.478 219.929C107.478 219.929 117.856 187.408 114.552 162.612" stroke="#0F0F0F" stroke-width="0.99749" stroke-linecap="round" stroke-linejoin="round"/>
<path d="M118.279 200.061C118.916 200.146 119.501 199.699 119.585 199.062C119.669 198.426 119.221 197.841 118.584 197.757C117.947 197.672 117.362 198.119 117.278 198.755C117.194 199.392 117.642 199.976 118.279 200.061Z" fill="#0F0F0F"/>
<path d="M115.967 212.755C116.604 212.84 117.189 212.393 117.273 211.756C117.357 211.12 116.909 210.535 116.272 210.45C115.635 210.366 115.05 210.813 114.966 211.449C114.882 212.085 115.33 212.67 115.967 212.755Z" fill="#0F0F0F"/>
<path d="M87.6177 142.2C87.6177 142.2 82.3785 149.175 77.6363 146.045C72.8942 142.916 79.2368 133.807 79.2368 133.807C79.2368 133.807 74.3633 142.491 68.9854 138.03C63.6075 133.57 78.1636 123.105 78.2891 115.842C78.4146 108.58 68.2347 81.0902 75.6124 68.5565C82.5185 56.825 92.6021 58.3907 92.6021 58.3907C92.6021 58.3907 98.8126 42.414 115.059 48.9612C122.819 40.0431 140.724 37.0579 143.882 53.8812C153.634 50.2131 165.085 74.393 140.323 82.6692C115.561 90.9455 87.6177 142.2 87.6177 142.2Z" fill="#DF9300"/>
<path d="M132.115 143.995L132.185 146.605L132.421 155.528C129.5 157.829 124.554 161.411 113.676 161.611C96.6687 161.923 81.8878 153.418 81.8878 153.418L81.2289 121.128C77.9328 120.227 75.012 117.556 73.7176 113.802C71.9745 108.777 73.7043 103.482 77.6016 101.054L77.6195 101.044C77.9306 100.878 82.2491 98.7357 86.6051 100.773C87.3518 109.069 88.6633 118.633 89.4401 123.997C89.5966 125.064 90.1326 126.04 90.9495 126.744C91.7664 127.448 92.809 127.833 93.8854 127.828C94.9618 127.824 95.9995 127.429 96.8074 126.718C97.6152 126.007 98.1387 125.026 98.2816 123.957C98.3219 123.646 98.3301 123.331 98.3059 123.018C98.3059 123.018 96.5257 99.5382 95.8571 90.4762C108.46 91.5598 125.789 87.4453 134.807 84.8951C138.15 83.9493 140.351 83.2149 140.751 83.0365C140.904 84.0221 141.074 85.1216 141.254 86.3115C141.249 86.3522 145.889 119.47 144.73 128.291C143.089 140.702 132.115 143.995 132.115 143.995Z" fill="#FFA79B"/>
<path d="M80.169 106.667C80.169 106.667 77.8911 109.492 79.8073 112.535C81.7236 115.577 85.4565 113.787 85.4565 113.787C85.2313 111.921 84.2126 110.216 82.8982 108.869C81.5838 107.521 79.9785 106.495 78.3555 105.541" stroke="#952C28" stroke-width="0.99749" stroke-linecap="round" stroke-linejoin="round"/>
<path d="M111.059 145.778C111.059 145.778 121.607 148.097 132.789 144.085L132.854 151.185C132.854 151.185 122.282 154.005 111.059 145.778Z" fill="black"/>
<path d="M80.8594 121.599C80.8594 121.599 82.1178 122.252 86.5113 122.264" stroke="#952C28" stroke-width="0.99749" stroke-linecap="round" stroke-linejoin="round"/>
<path d="M116.198 105.711C116.315 107.095 116.436 108.665 116.553 110.049C116.673 111.619 114.267 111.477 114.241 109.998C114.124 108.614 114.003 107.044 113.886 105.66C113.675 104.185 115.987 104.236 116.198 105.711Z" fill="black"/>
<path d="M139.517 102.38C139.635 103.764 139.755 105.334 139.872 106.718C139.993 108.287 137.587 108.146 137.56 106.667C137.443 105.283 137.323 103.713 137.205 102.329C136.994 100.853 139.306 100.905 139.517 102.38Z" fill="black"/>
<path d="M129.188 99.9927C129.949 102.186 131.691 109.066 131.901 111.743C132.052 113.758 130.141 116.174 128.83 117.43" stroke="#952C28" stroke-width="0.99749" stroke-linecap="round" stroke-linejoin="round"/>
<path d="M110.766 102.053L118.235 101.238" stroke="#1A1B16" stroke-width="0.99749" stroke-linecap="round" stroke-linejoin="round"/>
<path d="M134.347 99.017L139.92 98.4089" stroke="#1A1B16" stroke-width="0.99749" stroke-linecap="round" stroke-linejoin="round"/>
<path d="M123.408 127.285L133.191 125.18" stroke="#952C28" stroke-width="0.99749" stroke-linecap="round" stroke-linejoin="round"/>
</g>
</svg>
