<svg width="220" height="220" viewBox="0 0 220 220" fill="none" xmlns="http://www.w3.org/2000/svg">
<rect width="220" height="220" rx="110" fill="#F3F3F3"/>
<mask id="mask0_1151_2185" style="mask-type:alpha" maskUnits="userSpaceOnUse" x="0" y="0" width="220" height="220">
<rect width="220" height="220" rx="110" fill="#F3F3F3"/>
</mask>
<g mask="url(#mask0_1151_2185)">
<path d="M173.897 160.227L113.861 173.096L108.092 156.93L100.611 136.263L87.7412 100.507L131.548 86.813C132.943 91.2508 173.897 160.227 173.897 160.227Z" fill="#FFA79B"/>
<path d="M108.025 156.993L108.342 157.817C116.33 150.971 121.529 141.398 123.875 130.557C126.981 116.166 123.621 103.613 120.134 90.3633L87.8018 100.507L100.671 136.263L108.025 156.993Z" fill="black"/>
<path d="M140.866 93.2167C139.852 102.346 133.576 122.252 132.815 123.901C124.32 142.92 99.7851 156.804 81.2732 141.715C81.1464 141.588 81.0197 141.525 80.8929 141.398C80.7027 141.272 80.5759 141.081 80.3857 140.891C80.2589 140.764 80.1321 140.574 79.9419 140.384C79.8785 140.321 79.8785 140.257 79.8151 140.194C79.5615 139.877 79.3713 139.56 79.1177 139.243C78.8007 138.799 78.5472 138.292 78.2302 137.721C78.1034 137.531 78.04 137.341 77.9132 137.151C77.7864 136.897 77.5962 136.58 77.4694 136.263C77.3426 136.073 77.2792 135.819 77.1524 135.566C76.9623 135.122 76.7721 134.615 76.5185 134.108C76.3283 133.6 76.1381 133.093 75.9479 132.523C75.2505 130.684 74.6166 128.656 74.046 126.5C74.046 126.437 74.046 126.437 74.046 126.373C73.9826 126.056 73.8558 125.739 73.7924 125.422C73.729 125.105 73.6022 124.788 73.5388 124.471C72.9683 122.189 72.3977 119.717 71.8271 117.181C70.9395 113.06 70.1788 108.749 69.4814 104.438C69.4814 104.375 69.4814 104.311 69.418 104.184C67.5161 92.2024 66.1848 80.2204 65.424 72.7396C65.3606 72.3592 65.3606 71.9788 65.2972 71.6618C65.2972 71.535 65.2973 71.4082 65.2339 71.2814C62.9516 49.0291 116.522 34.1943 131.927 50.8676C140.993 60.6308 142.705 77.2407 140.866 93.2167Z" fill="#FFA79B"/>
<path d="M132.117 50.9952C122.988 41.1687 100.609 42.3099 84.2525 49.4737C81.3362 49.4737 78.4834 49.7273 75.6305 50.1711C72.4607 50.6783 68.4667 51.1854 66.3112 53.8481C65.3602 55.0526 64.9165 56.5108 65.0433 57.9055C64.7263 58.0957 64.4093 58.2859 64.0289 58.4761C60.0349 60.8218 56.9918 66.4641 61.3662 70.1411C65.3602 73.4377 72.5241 71.5358 76.8984 70.3313C77.152 70.2679 77.469 70.1411 77.7226 70.0777C85.3936 70.9652 93.128 69.5705 99.9749 66.1471C103.589 66.6543 107.075 66.5275 110.562 65.8301C110.879 65.9569 111.196 66.1471 111.513 66.3373C113.035 67.2882 114.112 68.683 115 70.2045C115.317 70.4581 123.432 88.7797 117.472 92.9639C102.321 103.741 82.6042 106.721 69.6078 104.566C70.3052 108.877 71.0659 113.251 71.9535 117.308C72.4607 119.844 73.0312 122.253 73.6652 124.599C73.7286 124.916 73.8554 125.233 73.9188 125.55C73.9822 125.867 74.109 126.184 74.1724 126.501C74.1724 126.564 74.1724 126.564 74.1724 126.628C74.8064 128.783 75.4403 130.812 76.0743 132.65C76.2645 133.158 76.4547 133.728 76.6449 134.235C76.8351 134.742 77.0253 135.25 77.2788 135.693C77.4056 135.947 77.469 136.137 77.5958 136.391C77.7226 136.708 77.9128 137.025 78.0396 137.278C78.1664 137.469 78.2298 137.659 78.3566 137.849C78.6736 138.356 78.9271 138.863 79.2441 139.37C79.4343 139.687 79.6879 140.004 79.9415 140.321C80.0049 140.385 80.0049 140.448 80.0683 140.512C80.1951 140.702 80.3219 140.829 80.5121 141.019C80.7023 141.209 80.829 141.399 81.0192 141.526C81.146 141.653 81.2728 141.716 81.3996 141.843C99.9115 156.931 125.334 144.315 133.322 125.043C135.287 120.225 133.322 108.686 132.307 104.312C131.673 101.523 137.759 97.3383 140.929 93.2809C142.704 77.2415 140.993 60.6316 132.117 50.9952Z" fill="#1A1B16"/>
<path d="M90.5909 99.049C88.9425 99.683 87.1674 100.38 85.3289 100.254C83.2368 100.127 80.7643 98.415 81.7787 96.0694C82.1591 95.1184 80.7643 94.3576 80.384 95.3086C79.433 97.5275 80.384 100 82.5395 101.141C85.2655 102.599 88.372 101.585 91.098 100.571C92.049 100.254 91.6052 98.732 90.5909 99.049Z" fill="#D24A43"/>
<path d="M101.369 84.4678C101.686 85.9259 101.939 87.384 102.256 88.8422C102.573 90.3637 104.792 89.6029 104.539 88.1448C104.222 86.6867 103.968 85.2286 103.651 83.7704C103.334 82.2489 101.115 83.0097 101.369 84.4678Z" fill="black"/>
<path d="M71.5106 87.6379C71.8276 89.096 72.0812 90.5541 72.3982 92.0122C72.7151 93.5338 74.934 92.773 74.6804 91.3149C74.3634 89.8567 74.1099 88.3986 73.7929 86.9405C73.4759 85.4824 71.1936 86.1797 71.5106 87.6379Z" fill="black"/>
<path d="M73.601 75.2753C71.9527 75.7825 70.3043 76.353 68.656 76.8602C67.8319 77.1138 67.5149 78.2549 67.8319 79.0157C68.2122 79.9033 69.0998 80.0934 69.9874 79.8399C71.6357 79.3327 73.284 78.7621 74.9323 78.2549C75.7565 78.0013 76.0734 76.8602 75.7565 76.0994C75.3761 75.2119 74.4252 74.9583 73.601 75.2753Z" fill="#313131"/>
<path d="M99.4668 71.6617C97.8818 72.0421 96.3603 72.4859 94.7754 72.8663C92.7467 73.3735 93.761 76.4165 95.7263 75.9093C97.3113 75.529 98.8328 75.0852 100.418 74.7048C102.446 74.261 101.432 71.1546 99.4668 71.6617Z" fill="#313131"/>
<path d="M112.337 120.54C111.132 123.837 108.47 126.31 105.046 127.197C104.032 127.451 104.285 129.036 105.3 128.782C109.23 127.704 112.4 124.978 113.795 121.111C114.175 120.16 112.654 119.59 112.337 120.54Z" fill="#FFA79B"/>
<path d="M151.137 78.065C146.889 71.2815 134.59 69.76 127.87 78.3185C129.518 86.8771 130.977 95.4357 132.245 104.058C137.126 105.199 146.319 103.36 150.63 98.035C155.575 91.8855 155.701 85.3556 151.137 78.065Z" fill="#FFA79B"/>
<path d="M139.723 83.5805C138.138 86.3065 136.617 89.096 135.032 91.8221C134.525 92.7096 135.919 93.407 136.49 92.5194C136.617 92.3292 136.744 92.139 136.807 91.9488C136.87 91.8854 136.87 91.8221 136.87 91.7587C138.265 89.2862 139.723 86.7503 141.118 84.2778C141.689 83.3903 140.23 82.6929 139.723 83.5805Z" fill="#D24A43"/>
<path d="M216.31 159.529V244.988H8.36813C8.17794 235.288 8.49491 215.952 11.9183 187.804C16.5463 150.463 43.9972 154.901 100.547 157.5C107.204 157.817 114.241 158.071 121.722 158.261C136.873 158.641 157.985 158.958 177.891 159.149C192.219 159.339 205.913 159.466 216.31 159.529Z" fill="#DBDBDB"/>
<path d="M125.462 192.432C119.313 194.525 113.163 196.617 107.014 198.772C107.521 186.346 108.028 173.921 108.535 161.495C108.599 160.607 107.141 160.607 107.141 161.495C106.633 174.238 106.126 187.044 105.619 199.786C105.619 200.23 106.063 200.611 106.507 200.484L125.906 193.827C126.667 193.51 126.287 192.115 125.462 192.432Z" fill="#0F0F0F"/>
<path d="M168.887 166.756C160.455 180.133 152.023 193.51 143.591 206.823C139.534 202.512 135.54 198.201 131.483 193.954C130.849 193.32 129.898 194.271 130.468 194.968C134.716 199.469 138.963 203.97 143.211 208.535C143.528 208.852 144.099 208.788 144.289 208.408C152.911 194.778 161.469 181.147 170.091 167.517C170.598 166.693 169.394 165.932 168.887 166.756Z" fill="#0F0F0F"/>
<path d="M130.089 198.963C130.089 198.075 128.631 198.075 128.694 198.963L129.899 243.087C129.899 243.974 131.357 243.974 131.294 243.087L130.089 198.963Z" fill="#0F0F0F"/>
<path d="M40.7637 194.398V203.78C40.7637 204.668 42.1584 204.668 42.1584 203.78V194.398C42.2218 193.51 40.7637 193.51 40.7637 194.398Z" fill="#0F0F0F"/>
<path d="M121.719 158.262C117.282 158.135 112.464 157.945 108.343 157.818L129.454 192.876L173.198 159.149C155.003 158.832 135.794 158.579 121.719 158.262Z" fill="#FFA79B"/>
<path d="M74.6769 255.258C73.092 253.23 71.4437 251.264 69.7954 249.236C65.9916 242.135 62.2511 235.035 58.3205 227.934C53.9461 220.01 47.1627 210.437 33.0886 210.69C32.518 210.69 31.9474 210.754 31.3769 210.754C31.3135 223.18 34.6101 235.669 39.6819 246.953C41.0766 250.123 42.6615 253.23 44.3098 256.273V256.209C44.6268 252.596 44.9438 248.982 45.1974 245.369C47.9234 247.397 50.0789 250.377 53.122 251.898C54.7703 256.019 58.4473 258.365 62.1243 260.964C65.4844 263.373 73.7894 267.494 76.769 262.295C78.3539 259.76 76.3252 257.287 74.6769 255.258Z" fill="#FFA79B"/>
<path d="M50.9048 217.664C46.7206 213.607 41.0783 210.564 33.1537 210.754C24.9121 210.944 16.2267 212.783 9.76027 218.298C3.2304 221.341 -0.256446 227.681 -1.39759 234.718C-2.91911 243.974 -2.7923 254.054 -1.65115 263.373C-0.890391 269.523 3.35718 276.243 9.82365 274.785C10.0772 276.306 10.4576 277.765 11.0282 279.096C12.4229 282.076 15.9732 283.914 18.826 283.217C19.8404 287.211 22.8834 290.824 27.1944 289.683C27.1944 290 26.9408 299.002 29.9838 301.475C32.2661 303.313 36.4503 302.806 38.2888 299.256C41.2685 293.424 43.107 270.727 44.1214 258.745C43.8678 257.414 47.2278 223.624 50.9048 217.664Z" fill="#FFA79B"/>
</g>
</svg>
