<svg width="220" height="220" viewBox="0 0 220 220" fill="none" xmlns="http://www.w3.org/2000/svg">
<rect width="220" height="220" rx="12" fill="#F3F3F3"/>
<mask id="mask0_1151_2186" style="mask-type:alpha" maskUnits="userSpaceOnUse" x="0" y="0" width="220" height="220">
<rect width="220" height="220" rx="12" fill="#F3F3F3"/>
</mask>
<g mask="url(#mask0_1151_2186)">
<path d="M53.6369 148.842L126.126 140.763L213.444 174.628C213.444 174.628 216.1 406.15 210.788 404.822C205.365 403.494 9.70103 392.648 9.70103 388.553C9.70103 384.458 -3.13672 278.879 -3.13672 278.879L53.6369 148.842Z" fill="#DBDBDB"/>
<path d="M-11.436 174.628C-40.5421 228.745 -48.621 245.014 -48.621 245.014L-138.485 165.221C-138.706 152.715 -140.698 139.877 -145.457 128.368C-151.433 114.091 -160.73 112.21 -170.69 101.032C-176.445 94.5028 -183.306 103.356 -177.551 109.886L-171.686 116.969C-171.575 120.51 -169.583 129.806 -169.141 133.348C-178.769 124.162 -191.607 110.771 -204.002 105.016C-207.432 103.467 -210.642 104.684 -212.523 107.009C-215.401 107.341 -217.725 109.775 -218.389 112.542C-221.155 114.645 -222.705 118.961 -220.27 122.613C-222.152 124.605 -223.148 127.482 -221.819 130.581C-221.709 130.803 -221.598 130.913 -221.598 131.135C-222.373 131.909 -221.377 134.676 -222.151 136.004C-225.582 142.091 -215.622 166.438 -197.14 178.612C-191.717 191.228 -180.429 199.418 -179.544 199.639C-159.955 225.979 -92.1143 319.827 -59.024 350.593C-21.5069 385.565 9.37001 341.739 34.3814 261.946C59.3928 182.043 64.1516 155.039 64.1516 155.039L128.451 141.538C46.8871 136.668 17.7809 120.4 -11.436 174.628Z" fill="#FFA79B"/>
<path d="M128.785 141.427L127.236 141.759L83.6318 150.944L64.486 154.929C64.486 154.929 59.7271 182.043 34.7157 261.836C33.0557 267.037 31.3956 272.128 29.7356 276.998C7.9336 258.405 -14.5324 240.587 -37.2197 222.991C-31.4649 212.034 -23.1646 196.319 -11.3229 174.407C11.1431 132.684 33.4984 132.795 80.0904 137.111C93.4814 138.328 108.754 139.988 126.682 141.095C127.346 141.316 128.01 141.316 128.785 141.427Z" fill="#DBDBDB"/>
<path d="M32.7208 184.699C30.7288 206.612 28.7367 228.525 26.634 250.437C26.5233 251.323 27.9621 251.323 27.9621 250.437C29.9541 228.525 31.9462 206.612 34.0489 184.699C34.0489 183.814 32.7208 183.814 32.7208 184.699Z" fill="#0F0F0F"/>
<path d="M126.014 140.764C175.483 145.522 238.344 138.108 245.87 183.372C253.284 228.746 258.707 249.663 262.138 282.2C265.569 314.737 277.742 353.914 237.127 358.009C196.511 362.103 103.105 369.518 103.105 369.518L84.8447 320.049C84.8447 320.049 160.654 292.935 185.001 285.52L180.242 188.02L126.014 140.764Z" fill="#FFA79B"/>
<path d="M260.254 266.927C234.8 267.481 209.346 268.587 184.335 272.793L180.24 188.13L146.818 158.914L127.229 141.76L126.676 141.317L126.012 140.764C137.079 141.87 148.81 142.313 160.43 142.866C200.825 144.858 240.002 148.179 245.757 183.482C252.065 221.221 256.934 242.137 260.254 266.927Z" fill="#DBDBDB"/>
<path d="M183.01 203.071C183.01 202.186 181.682 202.186 181.682 203.071C181.792 224.099 181.903 245.015 182.014 266.042C182.014 266.928 183.342 266.928 183.342 266.042C183.231 245.015 183.12 223.988 183.01 203.071Z" fill="#0F0F0F"/>
<path d="M120.929 152.052C130.446 149.728 139.742 147.072 149.149 144.416L128.565 95.8315L92.4863 111.879C93.1503 112.432 98.9051 136.005 103.443 155.261C109.308 154.155 115.174 153.38 120.929 152.052Z" fill="#FFA79B"/>
<path d="M117.605 104.132C117.495 102.693 117.384 101.254 117.052 99.8154L92.5938 111.989C93.0364 112.321 95.6925 122.724 98.6806 135.23C107.977 126.487 115.281 115.863 117.605 104.132Z" fill="black"/>
<path d="M156.34 71.8158C156.119 59.3101 137.416 46.4724 122.586 44.7017C116.167 43.927 114.618 38.7255 111.519 43.0416C103.883 53.8873 78.9818 86.7562 80.0885 99.5939C81.7485 118.297 104.325 122.503 119.044 115.53C133.874 108.558 156.672 89.523 156.34 71.8158Z" fill="#FFA79B"/>
<path d="M157.116 74.5826C159.108 71.3731 158.112 67.389 155.456 65.1756C155.345 65.0649 155.345 65.0649 155.234 64.9543C156.12 58.7567 151.582 53.7766 146.049 53.2233C145.385 51.6739 144.167 50.4565 142.507 49.6818C142.286 49.0178 142.064 48.4645 141.622 48.0218C140.626 47.0257 139.408 46.5831 138.08 46.5831C137.195 43.8163 135.646 41.3816 132.99 40.0535C131.329 39.1682 129.448 39.3895 128.009 40.1642C124.8 36.8441 120.816 34.0774 116.832 33.856C115.172 33.7454 111.852 34.52 110.413 38.6148C108.753 38.5042 107.203 39.3895 106.429 41.1602C105.322 43.8163 106.65 46.5831 108.753 48.2431C109.97 49.2392 111.741 49.9031 113.401 49.7925C118.492 55.4366 132.326 65.1756 135.646 65.065C133.1 70.9305 130.223 84.4322 137.195 85.6496C138.523 91.5151 131.994 101.143 135.203 105.238C142.286 99.4833 148.926 92.5111 152.799 84.9856C152.91 84.9856 153.131 84.9856 153.353 84.9856C158.333 83.8789 159.882 78.124 157.116 74.5826Z" fill="#952C28"/>
<path d="M150.697 100.036C152.357 93.3963 145.828 84.8747 136.421 85.76C132.105 91.8469 127.678 97.823 123.141 103.689C125.354 107.451 132.105 111.989 138.081 111.546C144.832 110.882 148.927 107.119 150.697 100.036Z" fill="#FFA79B"/>
<path d="M140.517 95.6091C137.861 95.9411 135.205 96.1624 132.549 96.4944C131.664 96.6051 131.885 97.8225 132.77 97.8225C132.992 97.8225 133.102 97.8225 133.324 97.8225C133.434 97.8225 133.434 97.8225 133.545 97.8225C135.98 97.6011 138.304 97.2691 140.739 97.0478C141.624 96.8264 141.403 95.4984 140.517 95.6091Z" fill="#952C28"/>
<path d="M118.934 72.7007C118.159 73.5861 117.274 74.5821 116.499 75.4674C115.614 76.4635 114.286 74.9141 115.171 74.0287C115.946 73.1434 116.831 72.1474 117.606 71.262C118.38 70.266 119.708 71.7047 118.934 72.7007Z" fill="black"/>
<path d="M106.428 62.4092C105.653 63.2946 104.768 64.2906 103.993 65.1759C103.108 66.172 101.78 64.6226 102.665 63.7372C103.44 62.8519 104.325 61.8559 105.1 60.9705C105.874 59.9745 107.202 61.4132 106.428 62.4092Z" fill="black"/>
<path d="M98.795 72.1475C99.5697 72.4795 99.127 73.6969 98.3523 73.3649C96.5816 72.7009 95.6963 74.8036 96.1389 76.2423C96.5816 77.681 97.799 78.677 98.9057 79.673C99.5697 80.2264 98.795 81.3331 98.131 80.7797C96.3603 79.2303 94.2575 77.2383 94.8109 74.5822C95.0322 72.7008 97.0243 71.4834 98.795 72.1475Z" fill="#952C28"/>
<path d="M121.48 65.6181C122.476 66.7248 123.361 67.7208 124.357 68.8275C125.575 70.1556 123.472 71.8156 122.254 70.4876C121.258 69.3809 120.373 68.3849 119.377 67.2782C118.27 65.9501 120.373 64.2901 121.48 65.6181Z" fill="#952C28"/>
<path d="M109.084 54.662C109.748 55.2153 110.412 55.7687 111.187 56.322C112.515 57.4287 110.966 59.5314 109.638 58.5354C108.973 57.9821 108.309 57.4287 107.535 56.8754C106.207 55.7687 107.756 53.5553 109.084 54.662Z" fill="#952C28"/>
<path d="M90.7142 93.1756C91.8209 94.393 93.7023 94.725 95.141 94.061C95.9157 93.729 96.469 94.9464 95.6943 95.2784C93.5916 96.1638 91.2675 95.721 89.6075 94.061C89.0541 93.397 90.0502 92.6223 90.7142 93.1756Z" fill="#952C28"/>
<path d="M160.547 142.866C157.227 149.174 152.468 154.597 146.824 158.913C140.627 163.671 133.212 166.992 124.911 168.32C108.975 170.865 91.0464 164.114 83.5209 150.944C81.3075 146.96 79.9795 142.423 79.9795 137.332C93.3706 138.549 108.643 140.209 126.571 141.316L125.908 140.763C137.085 141.759 148.816 142.202 160.547 142.866Z" fill="#FFA79B"/>
</g>
</svg>
