<svg width="336" height="336" viewBox="0 0 336 336" fill="none" xmlns="http://www.w3.org/2000/svg">
<g clip-path="url(#clip0_1151_2432)">
<rect width="336" height="336" fill="#0F0F0F" fill-opacity="0.05"/>
<path d="M273.049 236.936L183.649 256.1L175.058 232.027L163.919 201.252L144.755 148.008L209.988 127.617C212.065 134.225 273.049 236.936 273.049 236.936Z" fill="#FFA79B"/>
<path d="M174.96 232.122L175.432 233.349C187.327 223.153 195.068 208.898 198.561 192.755C203.187 171.326 198.184 152.634 192.992 132.903L144.846 148.008L164.01 201.252L174.96 232.122Z" fill="black"/>
<path d="M223.864 137.152C222.353 150.746 213.007 180.389 211.874 182.843C199.224 211.164 162.69 231.839 135.124 209.371C134.935 209.182 134.747 209.088 134.558 208.899C134.275 208.71 134.086 208.427 133.803 208.144C133.614 207.955 133.425 207.672 133.142 207.388C133.047 207.294 133.047 207.2 132.953 207.105C132.575 206.633 132.292 206.161 131.914 205.689C131.442 205.028 131.065 204.273 130.593 203.423C130.404 203.14 130.31 202.857 130.121 202.574C129.932 202.196 129.649 201.724 129.46 201.252C129.271 200.969 129.177 200.591 128.988 200.214C128.705 199.553 128.422 198.798 128.044 198.042C127.761 197.287 127.478 196.532 127.194 195.682C126.156 192.945 125.212 189.924 124.362 186.714C124.362 186.62 124.362 186.62 124.362 186.525C124.268 186.053 124.079 185.581 123.985 185.109C123.89 184.637 123.701 184.165 123.607 183.693C122.757 180.294 121.908 176.613 121.058 172.837C119.736 166.7 118.604 160.281 117.565 153.861C117.565 153.767 117.565 153.673 117.471 153.484C114.639 135.642 112.656 117.799 111.523 106.66C111.429 106.093 111.429 105.527 111.335 105.055C111.335 104.866 111.335 104.677 111.24 104.488C107.842 71.3527 187.613 49.2623 210.553 74.0904C224.052 88.6286 226.601 113.362 223.864 137.152Z" fill="#FFA79B"/>
<path d="M210.836 74.2808C197.242 59.6482 163.917 61.3475 139.561 72.0151C135.219 72.0151 130.97 72.3927 126.722 73.0535C122.002 73.8088 116.055 74.564 112.845 78.5289C111.429 80.3226 110.768 82.4939 110.957 84.5708C110.485 84.854 110.013 85.1372 109.446 85.4204C103.499 88.9133 98.9676 97.3153 105.481 102.791C111.429 107.7 122.097 104.868 128.61 103.074C128.988 102.979 129.46 102.791 129.838 102.696C141.261 104.018 152.778 101.941 162.973 96.8432C168.354 97.5985 173.547 97.4097 178.739 96.3712C179.211 96.56 179.683 96.8432 180.155 97.1264C182.42 98.5425 184.025 100.619 185.347 102.885C185.819 103.263 197.903 130.545 189.029 136.776C166.466 152.825 137.107 157.262 117.754 154.052C118.792 160.471 119.925 166.985 121.247 173.027C122.002 176.803 122.852 180.39 123.796 183.883C123.89 184.355 124.079 184.827 124.173 185.299C124.268 185.771 124.457 186.243 124.551 186.715C124.551 186.81 124.551 186.81 124.551 186.904C125.495 190.114 126.439 193.135 127.383 195.873C127.666 196.628 127.95 197.477 128.233 198.233C128.516 198.988 128.799 199.743 129.177 200.404C129.366 200.782 129.46 201.065 129.649 201.442C129.838 201.914 130.121 202.386 130.31 202.764C130.499 203.047 130.593 203.331 130.782 203.614C131.254 204.369 131.631 205.124 132.103 205.879C132.387 206.351 132.764 206.823 133.142 207.295C133.236 207.39 133.236 207.484 133.331 207.579C133.519 207.862 133.708 208.051 133.991 208.334C134.275 208.617 134.463 208.9 134.747 209.089C134.935 209.278 135.124 209.372 135.313 209.561C162.879 232.029 200.735 213.243 212.63 184.544C215.556 177.37 212.63 160.188 211.119 153.674C210.175 149.52 219.238 143.29 223.958 137.248C226.601 113.364 224.052 88.6301 210.836 74.2808Z" fill="#313131"/>
<path d="M149 145.837C146.546 146.781 143.903 147.819 141.165 147.63C138.05 147.442 134.368 144.893 135.878 141.4C136.445 139.984 134.368 138.851 133.801 140.267C132.385 143.571 133.801 147.253 137.011 148.952C141.071 151.123 145.696 149.613 149.756 148.102C151.172 147.63 150.511 145.365 149 145.837Z" fill="#D24A43"/>
<path d="M165.049 124.124C165.521 126.295 165.898 128.467 166.37 130.638C166.842 132.903 170.146 131.771 169.769 129.599C169.297 127.428 168.919 125.257 168.447 123.086C167.975 120.82 164.671 121.953 165.049 124.124Z" fill="black"/>
<path d="M120.587 128.845C121.059 131.016 121.437 133.188 121.909 135.359C122.381 137.624 125.685 136.492 125.307 134.32C124.835 132.149 124.457 129.978 123.985 127.807C123.513 125.635 120.115 126.674 120.587 128.845Z" fill="black"/>
<path d="M123.701 110.436C121.246 111.191 118.791 112.041 116.337 112.796C115.11 113.174 114.638 114.873 115.11 116.006C115.676 117.327 116.998 117.611 118.32 117.233C120.774 116.478 123.228 115.628 125.683 114.873C126.91 114.495 127.382 112.796 126.91 111.663C126.344 110.341 124.928 109.964 123.701 110.436Z" fill="#313131"/>
<path d="M162.217 105.055C159.857 105.621 157.591 106.282 155.231 106.848C152.21 107.604 153.721 112.135 156.647 111.38C159.007 110.813 161.273 110.153 163.633 109.586C166.654 108.925 165.143 104.3 162.217 105.055Z" fill="#313131"/>
<path d="M181.381 177.84C179.588 182.749 175.623 186.431 170.525 187.752C169.015 188.13 169.392 190.49 170.903 190.113C176.756 188.508 181.476 184.448 183.553 178.69C184.119 177.274 181.853 176.424 181.381 177.84Z" fill="#FFA79B"/>
<path d="M239.158 114.59C232.833 104.488 214.518 102.223 204.512 114.967C206.966 127.712 209.138 140.456 211.026 153.295C218.295 154.994 231.983 152.257 238.403 144.327C245.766 135.17 245.955 125.446 239.158 114.59Z" fill="#FFA79B"/>
<path d="M222.163 122.803C219.803 126.862 217.537 131.016 215.177 135.075C214.422 136.397 216.499 137.436 217.348 136.114C217.537 135.831 217.726 135.547 217.82 135.264C217.915 135.17 217.915 135.075 217.915 134.981C219.992 131.299 222.163 127.523 224.24 123.841C225.089 122.52 222.918 121.481 222.163 122.803Z" fill="#D24A43"/>
<path d="M336.205 235.898V363.154H26.561C26.2778 348.71 26.7498 319.917 31.8476 278.002C38.739 222.398 79.6158 229.006 163.824 232.877C173.736 233.349 184.215 233.727 195.355 234.01C217.917 234.576 249.354 235.048 278.996 235.331C300.331 235.615 320.723 235.803 336.205 235.898Z" fill="#DBDBDB"/>
<path d="M200.925 284.894C191.768 288.01 182.611 291.125 173.454 294.335C174.209 275.831 174.964 257.328 175.719 238.825C175.814 237.504 173.643 237.504 173.643 238.825C172.887 257.8 172.132 276.87 171.377 295.845C171.377 296.506 172.038 297.072 172.699 296.883L201.586 286.971C202.719 286.499 202.153 284.422 200.925 284.894Z" fill="#0F0F0F"/>
<path d="M265.589 246.66C253.033 266.579 240.477 286.498 227.922 306.323C221.88 299.904 215.932 293.484 209.891 287.159C208.947 286.215 207.531 287.631 208.38 288.67C214.705 295.372 221.03 302.075 227.355 308.872C227.827 309.344 228.677 309.25 228.96 308.683C241.799 288.386 254.544 268.09 267.382 247.793C268.138 246.566 266.344 245.433 265.589 246.66Z" fill="#0F0F0F"/>
<path d="M207.814 294.618C207.814 293.296 205.643 293.296 205.737 294.618L207.531 360.323C207.531 361.644 209.702 361.644 209.608 360.323L207.814 294.618Z" fill="#0F0F0F"/>
<path d="M74.8008 287.82V301.792C74.8008 303.113 76.8777 303.113 76.8777 301.792V287.82C76.9721 286.498 74.8008 286.498 74.8008 287.82Z" fill="#0F0F0F"/>
<path d="M195.353 234.01C188.744 233.822 181.57 233.538 175.434 233.35L206.87 285.555L272.008 235.332C244.915 234.86 216.31 234.482 195.353 234.01Z" fill="#FFA79B"/>
<path d="M125.301 378.447C122.941 375.426 120.487 372.5 118.032 369.479C112.368 358.906 106.798 348.333 100.945 337.759C94.4313 325.959 84.3301 311.704 63.3725 312.082C62.5229 312.082 61.6732 312.176 60.8236 312.176C60.7292 330.679 65.6382 349.277 73.1905 366.08C75.2674 370.801 77.6275 375.426 80.082 379.958V379.863C80.554 374.482 81.026 369.101 81.4036 363.72C85.4629 366.741 88.6727 371.178 93.204 373.444C95.6585 379.58 101.134 383.073 106.609 386.944C111.613 390.531 123.98 396.667 128.417 388.926C130.777 385.15 127.756 381.468 125.301 378.447Z" fill="#FFA79B"/>
<path d="M89.9022 322.466C83.6716 316.424 75.2697 311.892 63.4692 312.176C51.1968 312.459 38.2635 315.197 28.6343 323.41C18.9108 327.941 13.7185 337.381 12.0193 347.86C9.75358 361.643 9.94242 376.653 11.6417 390.531C12.7745 399.688 19.0995 409.695 28.7287 407.523C29.1063 409.789 29.6728 411.96 30.5224 413.943C32.5993 418.38 37.8859 421.117 42.134 420.079C43.6445 426.026 48.1759 431.407 54.5953 429.708C54.5953 430.18 54.2177 443.586 58.749 447.267C62.1476 450.005 68.3783 449.25 71.116 443.963C75.5529 435.278 78.2906 401.482 79.8011 383.639C79.4235 381.657 84.4268 331.34 89.9022 322.466Z" fill="#FFA79B"/>
</g>
<defs>
<clipPath id="clip0_1151_2432">
<rect width="336" height="336" fill="white"/>
</clipPath>
</defs>
</svg>
