<svg width="336" height="336" viewBox="0 0 336 336" fill="none" xmlns="http://www.w3.org/2000/svg">
<g clip-path="url(#clip0_1151_2536)">
<rect width="336" height="336" fill="#0F0F0F" fill-opacity="0.05"/>
<path d="M76.3175 209.681L184.26 197.651L314.285 248.079C314.285 248.079 318.24 592.835 310.33 590.858C302.255 588.88 10.8929 572.73 10.8929 566.633C10.8929 560.535 -8.22363 403.318 -8.22363 403.318L76.3175 209.681Z" fill="#DBDBDB"/>
<path d="M-20.5825 248.079C-63.9243 328.665 -75.9545 352.89 -75.9545 352.89L-209.77 234.071C-210.1 215.449 -213.066 196.333 -220.152 179.194C-229.051 157.935 -242.894 155.133 -257.726 138.489C-266.296 128.766 -276.513 141.949 -267.944 151.672L-259.209 162.219C-259.045 167.493 -256.078 181.336 -255.419 186.609C-269.756 172.931 -288.873 152.991 -307.33 144.421C-312.439 142.114 -317.218 143.927 -320.02 147.388C-324.304 147.882 -327.765 151.508 -328.754 155.628C-332.874 158.759 -335.181 165.186 -331.556 170.624C-334.357 173.591 -335.84 177.875 -333.863 182.49C-333.698 182.819 -333.533 182.984 -333.533 183.314C-334.687 184.467 -333.203 188.587 -334.357 190.565C-339.466 199.629 -324.634 235.884 -297.113 254.012C-289.038 272.799 -272.228 284.994 -270.91 285.323C-241.741 324.545 -140.72 464.293 -91.4455 510.107C-35.5791 562.183 10.3995 496.923 47.6437 378.104C84.888 259.12 91.9742 218.91 91.9742 218.91L187.722 198.805C66.2659 191.553 22.924 167.328 -20.5825 248.079Z" fill="#FFA79B"/>
<path d="M188.219 198.64L185.912 199.134L120.981 212.812L92.4715 218.745C92.4715 218.745 85.3851 259.121 48.1409 377.94C45.6689 385.685 43.197 393.266 40.725 400.517C8.25986 372.831 -25.194 346.298 -58.9775 320.096C-50.4081 303.781 -38.0482 280.379 -20.4149 247.749C13.039 185.621 46.3281 185.786 115.708 192.213C135.648 194.025 158.39 196.497 185.088 198.145C186.076 198.475 187.065 198.475 188.219 198.64Z" fill="#DBDBDB"/>
<path d="M45.1696 263.076C42.2032 295.706 39.2369 328.336 36.1057 360.965C35.9409 362.284 38.0833 362.284 38.0833 360.965C41.0497 328.336 44.016 295.706 47.1472 263.076C47.1472 261.757 45.1696 261.757 45.1696 263.076Z" fill="#0F0F0F"/>
<path d="M184.094 197.651C257.758 204.738 351.363 193.696 362.57 261.098C373.611 328.665 381.686 359.812 386.795 408.263C391.904 456.713 410.031 515.051 349.551 521.149C289.07 527.246 149.981 538.288 149.981 538.288L122.789 464.623C122.789 464.623 235.675 424.248 271.931 413.207L264.845 268.02L184.094 197.651Z" fill="#FFA79B"/>
<path d="M383.991 385.521C346.088 386.345 308.184 387.993 270.94 394.255L264.843 268.185L215.074 224.678L185.905 199.135L185.081 198.475L184.092 197.651C200.572 199.299 218.04 199.959 235.344 200.783C295.495 203.749 353.833 208.693 362.403 261.263C371.796 317.459 379.047 348.606 383.991 385.521Z" fill="#DBDBDB"/>
<path d="M268.965 290.433C268.965 289.115 266.987 289.115 266.987 290.433C267.152 321.745 267.317 352.891 267.482 384.203C267.482 385.521 269.459 385.521 269.459 384.203C269.294 352.891 269.13 321.58 268.965 290.433Z" fill="#0F0F0F"/>
<path d="M176.518 214.46C190.691 211 204.534 207.044 218.541 203.089L187.889 130.743L134.165 154.639C135.154 155.463 143.723 190.565 150.48 219.239C159.214 217.592 167.949 216.438 176.518 214.46Z" fill="#FFA79B"/>
<path d="M171.57 143.103C171.406 140.961 171.241 138.819 170.746 136.676L134.326 154.804C134.985 155.298 138.941 170.789 143.39 189.411C157.233 176.392 168.11 160.572 171.57 143.103Z" fill="black"/>
<path d="M229.25 94.9821C228.921 76.36 201.07 57.2435 178.987 54.6067C169.429 53.4531 167.121 45.7077 162.507 52.1348C151.136 68.2849 114.057 117.23 115.705 136.346C118.177 164.197 151.795 170.459 173.713 160.077C195.796 149.695 229.745 121.35 229.25 94.9821Z" fill="#FFA79B"/>
<path d="M230.405 99.102C233.371 94.3229 231.888 88.3902 227.933 85.0943C227.768 84.9295 227.768 84.9294 227.604 84.7646C228.922 75.536 222.165 68.1201 213.925 67.2961C212.937 64.989 211.124 63.1762 208.652 62.0226C208.322 61.0338 207.993 60.2098 207.333 59.5506C205.85 58.0674 204.038 57.4083 202.06 57.4083C200.742 53.2883 198.434 49.6628 194.479 47.6852C192.007 46.3668 189.206 46.6964 187.063 47.85C182.284 42.9061 176.352 38.7862 170.419 38.4566C167.947 38.2918 163.003 39.4453 160.861 45.5428C158.389 45.378 156.081 46.6964 154.928 49.3332C153.28 53.2883 155.257 57.4083 158.389 59.8802C160.201 61.3634 162.838 62.3521 165.31 62.1873C172.891 70.592 193.491 85.0943 198.434 84.9295C194.644 93.6638 190.359 113.769 200.742 115.582C202.719 124.316 192.996 138.653 197.775 144.751C208.322 136.182 218.21 125.799 223.978 114.593C224.143 114.593 224.472 114.593 224.802 114.593C232.218 112.945 234.525 104.376 230.405 99.102Z" fill="#952C28"/>
<path d="M220.847 137.006C223.319 127.118 213.596 114.428 199.588 115.747C193.161 124.811 186.569 133.71 179.812 142.444C183.108 148.047 193.161 154.804 202.06 154.145C212.113 153.156 218.21 147.553 220.847 137.006Z" fill="#FFA79B"/>
<path d="M205.688 130.413C201.733 130.907 197.778 131.237 193.823 131.731C192.504 131.896 192.834 133.709 194.152 133.709C194.482 133.709 194.647 133.709 194.976 133.709C195.141 133.709 195.141 133.709 195.306 133.709C198.931 133.379 202.392 132.885 206.018 132.555C207.336 132.226 207.006 130.248 205.688 130.413Z" fill="#952C28"/>
<path d="M173.549 96.3002C172.395 97.6186 171.077 99.1018 169.923 100.42C168.605 101.903 166.627 99.5962 167.946 98.2778C169.099 96.9594 170.418 95.4763 171.571 94.1579C172.725 92.6747 174.702 94.8171 173.549 96.3002Z" fill="black"/>
<path d="M154.926 80.9746C153.772 82.2929 152.454 83.7761 151.3 85.0945C149.982 86.5777 148.004 84.2705 149.322 82.9521C150.476 81.6338 151.794 80.1506 152.948 78.8322C154.102 77.349 156.079 79.4914 154.926 80.9746Z" fill="black"/>
<path d="M143.56 95.4768C144.714 95.9712 144.055 97.784 142.901 97.2896C140.264 96.3008 138.946 99.4319 139.605 101.574C140.264 103.717 142.077 105.2 143.725 106.683C144.714 107.507 143.56 109.155 142.571 108.331C139.935 106.024 136.803 103.057 137.627 99.1023C137.957 96.3008 140.923 94.488 143.56 95.4768Z" fill="#952C28"/>
<path d="M177.339 85.7534C178.822 87.4014 180.14 88.8845 181.623 90.5325C183.436 92.51 180.305 94.982 178.492 93.0044C177.009 91.3565 175.691 89.8733 174.208 88.2254C172.56 86.2478 175.691 83.7758 177.339 85.7534Z" fill="#952C28"/>
<path d="M158.883 69.4384C159.872 70.2624 160.861 71.0864 162.014 71.9104C163.992 73.5583 161.685 76.6895 159.707 75.2063C158.718 74.3823 157.729 73.5583 156.576 72.7343C154.598 71.0864 156.906 67.7904 158.883 69.4384Z" fill="#952C28"/>
<path d="M131.528 126.788C133.176 128.601 135.977 129.096 138.12 128.107C139.273 127.612 140.097 129.425 138.944 129.92C135.812 131.238 132.352 130.579 129.88 128.107C129.056 127.118 130.539 125.965 131.528 126.788Z" fill="#952C28"/>
<path d="M235.515 200.782C230.571 210.175 223.484 218.25 215.08 224.678C205.851 231.764 194.81 236.708 182.45 238.685C158.719 242.476 132.022 232.423 120.815 212.812C117.519 206.879 115.542 200.123 115.542 192.542C135.482 194.355 158.225 196.827 184.922 198.475L183.933 197.651C200.578 199.134 218.046 199.793 235.515 200.782Z" fill="#FFA79B"/>
</g>
<defs>
<clipPath id="clip0_1151_2536">
<rect width="336" height="336" fill="white"/>
</clipPath>
</defs>
</svg>
