<svg width="336" height="336" viewBox="0 0 336 336" fill="none" xmlns="http://www.w3.org/2000/svg">
<g clip-path="url(#clip0_1151_2484)">
<rect width="336" height="336" fill="#0F0F0F" fill-opacity="0.05"/>
<path d="M83.5247 194.283L158.825 212.842L166.512 197.327L176.3 177.458L193.341 143.037L145.603 121.767C143.622 125.952 83.5247 194.283 83.5247 194.283Z" fill="#FFA79B"/>
<path d="M179.173 177.462L194.762 144.123L169.503 132.908C168.186 147.694 171.471 164.654 179.173 177.462Z" fill="black"/>
<path d="M131.351 83.8052C136.674 61.257 191.01 47.3918 199.95 68.2623C206.787 83.8164 225.231 127.104 220.935 138.374C212.224 161.085 183.723 161.138 166.862 148.594C149.832 135.931 126.122 106.037 131.351 83.8052Z" fill="#FFA79B"/>
<path d="M164.322 77.6288C180.407 75.7201 195.746 66.1044 199.125 63.8907C209.343 49.1031 196.349 35.0971 171.922 51.3196C151.384 55.3329 127.39 65.4179 126.68 84.615C119.117 108.552 134.359 108.712 143.029 121.252C147.719 117.923 146.047 110.081 151.76 106.575C160.171 101.268 163.102 97.3581 164.322 77.6288Z" fill="#952C28"/>
<path d="M200.169 110.485C201.921 110.18 203.844 109.992 205.471 108.968C207.219 107.775 208.569 105.17 206.491 103.608C205.635 103.017 206.602 101.664 207.458 102.255C209.365 103.699 209.842 106.429 208.391 108.458C206.749 111.114 203.391 111.7 200.47 112.209C199.423 112.244 199.122 110.52 200.169 110.485Z" fill="#D24A43"/>
<path d="M181.254 92.6171C182.073 93.9757 182.867 95.188 183.686 96.5466C184.504 97.9052 182.322 98.9103 181.504 97.5517C180.685 96.1931 179.891 94.9809 179.072 93.6222C178.421 92.3837 180.461 91.4049 181.254 92.6171Z" fill="black"/>
<path d="M204.897 83.148C205.716 84.5067 206.51 85.7191 207.328 87.0777C208.147 88.4364 205.965 89.4416 205.147 88.0829C204.328 86.7242 203.534 85.5119 202.716 84.1533C201.922 82.9409 204.079 81.7894 204.897 83.148Z" fill="black"/>
<path d="M174.078 85.8126C175.452 84.9949 176.973 84.1523 178.371 83.4769C180.162 82.4423 181.717 85.2552 179.779 86.3146C178.405 87.1323 176.885 87.9749 175.486 88.6504C173.695 89.6849 172.14 86.872 174.078 85.8126Z" fill="#952C28"/>
<path d="M197.416 76.3839C198.79 75.5662 200.311 74.7236 201.709 74.0481C203.5 73.0136 205.055 75.8265 203.117 76.8859C201.743 77.7036 200.222 78.5462 198.824 79.2216C197.033 80.2562 195.478 77.4433 197.416 76.3839Z" fill="#952C28"/>
<path d="M185.851 126.982C188.138 129.68 191.425 131.176 195.024 131.002C196.076 130.968 196.352 132.54 195.299 132.573C191.113 132.848 187.189 131.166 184.533 128.09C183.917 127.166 185.26 126.2 185.851 126.982Z" fill="#D24A43"/>
<path d="M129.41 118.465C129.789 110.32 139.811 102.836 150.057 106.979C152.836 115.305 155.929 123.724 158.972 131.853C155.26 135.362 146.244 138.328 139.696 135.764C132.351 132.895 128.987 127.217 129.41 118.465Z" fill="#FFA79B"/>
<path d="M141.397 117.756C144.082 119.361 146.938 121.085 149.623 122.69C150.478 123.281 149.633 124.467 148.657 124.045C148.486 123.926 148.315 123.808 148.145 123.69L147.974 123.572C145.459 122.085 142.945 120.598 140.431 119.111C139.431 118.545 140.422 117.334 141.397 117.756Z" fill="#D24A43"/>
<path d="M171.436 416.623C180.322 352.682 199.17 167.469 118.343 168.117C68.2375 168.524 18.5038 232.866 -16.8376 347.313C-27.7362 382.52 -37.6338 422.621 -43.1669 461.201C28.8753 448.688 102.045 438.362 171.436 416.623Z" fill="#DBDBDB"/>
<path d="M88.3751 441.549C88.4997 409.84 89.6282 378.094 90.7567 346.349C92.3022 303.1 102.25 281.123 104.075 237.822C70.8647 270.107 39.2439 295.392 37.7032 343.057C36.3715 383.22 52.0344 418.82 79.303 443.405C82.406 442.975 85.3206 442.275 88.3751 441.549Z" fill="black"/>
<path d="M333.734 475.947C342.344 455.606 353.166 436.215 362.869 416.275C330.662 400.926 296.448 391.09 264.78 374.583C263.494 373.914 260.608 371.577 260.608 371.577C260.608 371.577 186.63 236.825 166.184 212.041C166.184 212.041 187.131 418.753 188.951 425.219C190.888 431.512 323.18 473.367 323.18 473.367L333.734 475.947Z" fill="#DBDBDB"/>
<path d="M316.625 446.381C261.107 426.255 204.964 411.975 204.964 411.975C204.964 411.975 199.572 394.11 184.827 304.805C169.94 215.525 172.375 190.039 122.264 176.613C122.264 176.613 108.236 179.792 86.4427 212.603C64.6498 245.415 62.8671 377.728 68.2037 447.191C72.0377 496.566 199.149 530.095 278.585 524.712C289.689 499.142 307.072 472.42 316.625 446.381Z" fill="#DBDBDB"/>
<path d="M179.263 235.075C183.292 284.165 187.321 333.255 191.349 382.345C191.43 382.948 191.393 383.724 191.473 384.327C190.861 383.963 190.406 383.729 189.793 383.365C189.713 382.762 189.612 382.009 189.669 381.384C185.681 332.595 181.713 283.957 177.744 235.32C177.603 234.264 179.26 233.997 179.263 235.075Z" fill="black"/>
</g>
<defs>
<clipPath id="clip0_1151_2484">
<rect width="336" height="336" fill="white"/>
</clipPath>
</defs>
</svg>
