<svg width="336" height="336" viewBox="0 0 336 336" fill="none" xmlns="http://www.w3.org/2000/svg">
<g clip-path="url(#clip0_1151_2629)">
<rect width="336" height="336" fill="#0F0F0F" fill-opacity="0.05"/>
<path d="M451.877 227.083L383.816 355.386C373.078 375.623 346.948 382.214 327.647 369.55L263.148 327.214L237.507 435.015L132.639 421.277L125.943 424.183C118.318 426.823 110.097 427.319 102.197 425.616C94.2971 423.913 87.0287 420.078 81.2022 414.539L1.94162 404.155L26.9459 312.981L20.3862 296.124L13.0016 277.139C5.19338 249.604 27.3817 216.388 56.2897 214.955L103.266 212.631L131.639 211.225L225.32 209.551C248.385 209.143 270.729 217.561 287.67 233.042L341.128 281.893L375.39 192.244C376.372 193.991 378.444 195.701 381.943 197.101C384.475 198.104 386.92 199.31 389.253 200.707C401.716 208.233 403.529 217.767 410.738 221.31C422.89 227.282 429.436 222.713 436.524 225.188C437.15 225.406 437.758 225.67 438.344 225.979C445.245 229.589 449.232 230.959 451.877 227.083Z" fill="#DBDBDB"/>
<path d="M38.2659 413.306C38.9618 409.948 39.8926 406.615 39.5532 403.223C38.6927 394.613 30.0921 388.558 28.4303 380.055C27.2904 374.228 29.6126 368.3 29.644 362.357C29.6717 355.577 26.7251 349.195 24.4004 342.827C23.422 340.214 22.6023 337.543 21.9459 334.829L26.5033 317.932C26.8056 317.741 27.1337 317.564 27.4584 317.393L72.7806 408.702C74.8662 412.502 77.5044 415.967 80.6077 418.981L38.2659 413.306Z" fill="#0055A8"/>
<path d="M129.96 212.997C129.96 212.997 111.339 228.394 124.988 236.976C138.637 245.558 163.92 234.295 173.192 223.72C173.192 223.72 196.638 240.301 210.894 231.914C222.31 225.193 198.655 215.625 198.655 215.625" stroke="#0F0F0F" stroke-width="0.99749" stroke-linecap="round" stroke-linejoin="round"/>
<path d="M163.892 301.432C163.892 301.432 177.848 257.697 173.405 224.35" stroke="#0F0F0F" stroke-width="0.99749" stroke-linecap="round" stroke-linejoin="round"/>
<path d="M178.419 274.713C179.276 274.827 180.062 274.226 180.175 273.37C180.288 272.515 179.685 271.728 178.829 271.614C177.972 271.5 177.186 272.101 177.073 272.957C176.959 273.813 177.562 274.599 178.419 274.713Z" fill="#0F0F0F"/>
<path d="M175.309 291.784C176.165 291.898 176.951 291.297 177.065 290.441C177.178 289.585 176.575 288.799 175.718 288.685C174.861 288.571 174.075 289.172 173.962 290.028C173.849 290.884 174.452 291.67 175.309 291.784Z" fill="#0F0F0F"/>
<path d="M137.183 196.898C137.183 196.898 130.137 206.278 123.76 202.069C117.382 197.86 125.912 185.61 125.912 185.61C125.912 185.61 119.358 197.289 112.125 191.29C104.893 185.291 124.469 171.218 124.637 161.451C124.806 151.684 111.116 114.714 121.038 97.8585C130.325 82.0812 143.886 84.1869 143.886 84.1869C143.886 84.1869 152.238 62.7007 174.088 71.5057C184.524 59.5121 208.604 55.4975 212.85 78.1223C225.965 73.1892 241.366 105.708 208.064 116.838C174.762 127.968 137.183 196.898 137.183 196.898Z" fill="#DF9300"/>
<path d="M197.025 199.311L197.12 202.821L197.438 214.822C193.509 217.916 186.857 222.734 172.228 223.002C149.356 223.422 129.478 211.984 129.478 211.984L128.592 168.559C124.159 167.347 120.231 163.755 118.49 158.707C116.146 151.948 118.472 144.827 123.714 141.561L123.738 141.548C124.156 141.325 129.964 138.444 135.822 141.184C136.826 152.34 138.59 165.203 139.635 172.416C139.845 173.852 140.566 175.164 141.665 176.111C142.763 177.058 144.165 177.576 145.613 177.569C147.061 177.563 148.456 177.032 149.542 176.076C150.629 175.119 151.333 173.801 151.525 172.363C151.579 171.945 151.59 171.522 151.558 171.101C151.558 171.101 149.164 139.523 148.264 127.336C165.213 128.793 188.518 123.26 200.647 119.83C205.142 118.558 208.102 117.571 208.64 117.331C208.846 118.656 209.074 120.135 209.317 121.735C209.31 121.79 215.551 166.328 213.991 178.191C211.785 194.883 197.025 199.311 197.025 199.311Z" fill="#FFA79B"/>
<path d="M127.165 149.111C127.165 149.111 124.102 152.911 126.679 157.003C129.256 161.094 134.276 158.687 134.276 158.687C133.973 156.177 132.603 153.884 130.836 152.072C129.068 150.26 126.909 148.88 124.727 147.596" stroke="#952C28" stroke-width="0.99749" stroke-linecap="round" stroke-linejoin="round"/>
<path d="M168.708 201.709C168.708 201.709 182.893 204.829 197.931 199.433L198.019 208.981C198.019 208.981 183.801 212.774 168.708 201.709Z" fill="black"/>
<path d="M128.094 169.192C128.094 169.192 129.786 170.071 135.695 170.087" stroke="#952C28" stroke-width="0.99749" stroke-linecap="round" stroke-linejoin="round"/>
<path d="M175.62 147.826C175.777 149.688 175.94 151.798 176.097 153.66C176.259 155.771 173.024 155.58 172.988 153.591C172.83 151.729 172.668 149.619 172.511 147.757C172.227 145.773 175.336 145.842 175.62 147.826Z" fill="black"/>
<path d="M206.98 143.346C207.138 145.208 207.3 147.318 207.458 149.18C207.62 151.291 204.384 151.1 204.348 149.111C204.191 147.249 204.029 145.139 203.871 143.277C203.587 141.293 206.696 141.362 206.98 143.346Z" fill="black"/>
<path d="M193.09 140.136C194.113 143.086 196.455 152.338 196.737 155.938C196.941 158.648 194.371 161.897 192.608 163.586" stroke="#952C28" stroke-width="0.99749" stroke-linecap="round" stroke-linejoin="round"/>
<path d="M168.313 142.906L178.358 141.811" stroke="#1A1B16" stroke-width="0.99749" stroke-linecap="round" stroke-linejoin="round"/>
<path d="M200.027 138.823L207.521 138.006" stroke="#1A1B16" stroke-width="0.99749" stroke-linecap="round" stroke-linejoin="round"/>
<path d="M185.316 176.84L198.471 174.009" stroke="#952C28" stroke-width="0.99749" stroke-linecap="round" stroke-linejoin="round"/>
</g>
<defs>
<clipPath id="clip0_1151_2629">
<rect width="336" height="336" fill="white"/>
</clipPath>
</defs>
</svg>
